<?xml version="1.0" standalone="no"?>
<!DOCTYPE svg PUBLIC "-//W3C//DTD SVG 20010904//EN"
 "http://www.w3.org/TR/2001/REC-SVG-20010904/DTD/svg10.dtd">
<svg version="1.0" xmlns="http://www.w3.org/2000/svg"
 width="512.000000pt" height="512.000000pt" viewBox="0 0 512.000000 512.000000"
 preserveAspectRatio="xMidYMid meet">

<g transform="translate(0.000000,512.000000) scale(0.100000,-0.100000)"
fill="#000000" stroke="none">
<path d="M880 4391 c-98 -32 -176 -101 -211 -186 -14 -34 -29 -55 -38 -55 -30
0 -136 -58 -183 -99 -32 -28 -60 -68 -85 -119 l-38 -76 -3 -213 -4 -212 -52
-24 c-65 -30 -117 -81 -153 -150 -24 -45 -28 -64 -28 -137 0 -73 4 -92 28
-137 36 -69 88 -120 153 -150 l52 -24 4 -212 3 -213 38 -76 c52 -107 152 -190
253 -212 26 -6 34 -16 53 -61 28 -67 83 -125 153 -162 46 -24 64 -28 138 -28
77 1 91 4 148 34 70 38 100 69 140 145 l27 51 3 323 3 322 159 0 158 0 4 -157
c3 -135 6 -165 25 -204 11 -26 82 -123 157 -217 l136 -169 0 -947 0 -946 720
0 720 0 0 949 0 950 78 157 77 157 3 213 3 214 159 0 159 0 3 -322 3 -323 27
-51 c40 -76 70 -107 140 -145 57 -30 71 -33 148 -34 74 0 92 4 138 28 70 37
125 95 153 162 19 45 27 55 53 61 54 11 145 65 187 111 22 24 55 74 72 111
l32 67 3 212 4 212 52 24 c65 30 117 81 153 150 24 45 28 64 28 137 0 73 -4
92 -28 137 -36 69 -88 120 -153 150 l-52 24 -4 212 -3 213 -38 76 c-25 51 -53
91 -85 119 -47 41 -153 99 -183 99 -9 0 -24 21 -38 55 -28 67 -83 125 -153
162 -46 24 -64 28 -138 27 -69 0 -95 -5 -135 -24 -63 -31 -123 -91 -155 -155
-25 -50 -25 -52 -28 -372 l-3 -323 -120 0 -119 0 0 56 c0 87 -18 133 -75 189
-67 67 -156 93 -228 66 -22 -9 -26 -6 -43 31 -45 100 -183 164 -277 129 -22
-9 -26 -6 -43 31 -58 130 -229 177 -346 96 -28 -19 -28 -19 -55 0 -97 67 -211
54 -298 -33 -57 -56 -75 -102 -75 -189 l0 -56 -63 0 c-181 0 -352 -101 -435
-258 l-33 -62 -174 0 -174 0 -3 323 -3 322 -34 63 c-38 70 -70 101 -144 138
-54 28 -170 41 -217 25z m165 -181 c17 -10 39 -34 50 -52 20 -32 20 -51 20
-1038 l0 -1005 -22 -35 c-61 -99 -205 -99 -266 0 l-22 35 -3 983 c-2 666 1
996 8 1023 28 102 142 146 235 89z m3200 0 c17 -10 39 -34 50 -52 20 -32 20
-51 20 -1038 l0 -1005 -22 -35 c-61 -99 -205 -99 -266 0 l-22 35 -3 983 c-2
666 1 996 8 1023 28 102 142 146 235 89z m-1812 -221 c32 -14 47 -49 47 -104
l0 -45 -80 0 -80 0 0 45 c0 90 48 134 113 104z m320 0 c14 -6 30 -22 36 -36
16 -34 15 -992 0 -1027 -16 -35 -61 -52 -98 -37 -47 20 -51 42 -51 297 l0 235
29 37 c34 44 51 91 51 142 0 51 -17 98 -51 142 -26 33 -29 44 -29 112 0 83 12
119 44 134 28 14 40 14 69 1z m-2113 -870 l0 -860 -41 23 c-50 28 -95 90 -108
149 -14 60 -14 1319 0 1379 13 60 53 115 103 145 23 14 42 25 44 25 1 0 2
-387 2 -861z m3947 782 c52 -68 53 -84 53 -781 0 -697 -1 -713 -53 -781 -14
-19 -44 -45 -67 -58 l-40 -22 0 861 0 861 40 -22 c23 -13 53 -39 67 -58z
m-1514 -72 c14 -6 30 -22 36 -36 16 -34 15 -832 0 -867 -26 -55 -112 -55 -138
0 -15 35 -16 833 0 868 18 40 60 54 102 35z m-559 -160 c35 -16 52 -61 37 -98
-20 -47 -42 -51 -306 -51 l-245 0 0 -96 0 -96 56 -61 c171 -190 264 -435 264
-699 l0 -88 81 0 81 0 -3 127 c-3 106 -2 127 11 131 8 3 27 14 43 24 27 19 27
19 55 0 15 -10 42 -24 61 -30 66 -23 144 -11 204 30 27 19 27 19 55 0 15 -10
42 -24 61 -30 66 -23 144 -11 204 30 27 19 27 19 57 -2 16 -11 52 -26 80 -33
l50 -12 0 -186 0 -187 -80 -161 -80 -162 0 -209 0 -210 -560 0 -560 0 0 215 0
215 -146 183 c-81 100 -153 197 -161 215 -11 28 -13 119 -11 520 l3 487 28 55
c48 93 128 158 221 181 52 12 472 10 500 -2z m879 0 c14 -6 30 -22 36 -36 15
-34 15 -673 0 -707 -7 -13 -25 -30 -40 -37 -37 -15 -82 2 -98 37 -15 34 -15
673 0 708 18 40 60 54 102 35z m-1793 -549 l0 -240 -160 0 -160 0 0 240 0 240
160 0 160 0 0 -240z m880 31 c0 -191 -2 -211 -19 -232 -16 -19 -21 -21 -24 -9
-55 165 -129 309 -208 403 l-40 47 145 0 146 0 0 -209z m1360 -31 l0 -240
-126 0 c-126 0 -126 0 -120 23 3 12 6 120 6 240 l0 217 120 0 120 0 0 -240z
m-3520 0 c0 -73 -4 -130 -9 -130 -16 0 -50 51 -63 91 -8 30 -8 48 0 78 13 40
47 91 63 91 5 0 9 -57 9 -130z m4519 104 c34 -43 46 -97 33 -143 -13 -40 -47
-91 -63 -91 -5 0 -9 57 -9 130 0 73 4 130 9 130 5 0 19 -12 30 -26z m-2558
-1856 c-34 -67 -36 -78 -36 -168 0 -90 2 -101 36 -168 l35 -72 -118 0 -118 0
0 240 0 240 118 0 118 0 -35 -72z m919 -169 l0 -240 -312 3 c-299 3 -315 4
-353 25 -86 46 -129 118 -129 213 0 112 64 197 174 231 14 4 159 8 323 8 l297
1 0 -241z m0 -679 l0 -280 -560 0 -560 0 0 280 0 280 560 0 560 0 0 -280z"/>
</g>
</svg>
