<svg height="497.928pt" viewBox="0 0 497.928 497.928" width="497.928pt" xmlns="http://www.w3.org/2000/svg"><path d="m286.078125 259.847656c6.320313 13.28125 9.921875 28.160156 9.921875 43.921875 0 26.957031-10.71875 52.878907-29.839844 72l-20.320312 20.320313c-5.519532 5.519531-11.601563 10.15625-18 14.238281-5.039063 17.839844-14.480469 34.238281-27.839844 47.601563-20.480469 20.476562-48.238281 32-77.28125 32h-5.4375c-60.402344 0-109.28125-48.882813-109.28125-109.28125v-5.441407c0-29.039062 11.519531-56.800781 32-77.277343 13.359375-13.363282 29.761719-22.800782 47.601562-27.839844 4.078126-6.402344 8.71875-12.480469 14.238282-18l20.320312-20.320313c19.121094-19.121093 45.039063-29.839843 72-29.839843 15.761719 0 30.640625 3.519531 43.917969 9.917968l-14.078125 14.082032-24 24-35.601562 35.597656-19.597657-19.597656c-4.878906 2.796874-9.519531 6.160156-13.679687 10.316406-24.960938 25.042968-24.960938 65.523437 0 90.5625 25.039062 24.960937 65.519531 24.960937 90.558594 0 4.160156-4.160156 7.519531-8.800782 10.320312-13.679688l-19.601562-19.601562 35.601562-35.597656 24-24zm-158.078125 198.082032 24-24-88-88-24 24zm0 0" fill="#efb35b"/><path d="m343.996094 105.925781 24.003906-24 47.996094 47.996094-24 24zm0 0" fill="#f2d2b1"/><path d="m295.996094 153.925781 24.003906-24.003906 47.996094 48-24 24zm0 0" fill="#f2d2b1"/><path d="m247.996094 201.925781 24.003906-24.003906 47.996094 48-24 24zm0 0" fill="#f2d2b1"/><path d="m199.996094 249.925781 24.003906-24.003906 47.996094 48-24 24zm0 0" fill="#f2d2b1"/><g fill="#fcebdb"><path d="m416 129.929688-48-48 16-32 30.878906-17.121094 41.121094-22.878906 32 32-22.878906 41.117187-17.121094 30.882813zm0 0"/><path d="m319.996094 129.925781 24.003906-24 47.996094 47.996094-24 24zm0 0"/><path d="m271.996094 177.925781 24.003906-24.003906 47.996094 48-24 24zm0 0"/><path d="m296 249.929688-9.921875 9.917968-14.078125 14.082032-48-48 14.078125-14.082032 9.921875-9.917968zm0 0"/><path d="m164.390625 285.527344 35.605469-35.605469 47.996094 48-35.601563 35.601563zm0 0"/></g><path d="m40 369.925781 24-24.003906 88 88-24.003906 24zm0 0" fill="#fcefa4"/><path d="m212.398438 333.527344 19.601562 19.601562c-2.800781 4.878906-6.160156 9.519532-10.320312 13.679688-25.039063 24.960937-65.519532 24.960937-90.558594 0-24.960938-25.039063-24.960938-65.519532 0-90.5625 4.160156-4.15625 8.800781-7.519532 13.679687-10.316406zm0 0" fill="#fcefa4"/><path d="m497.929688 40.535156-40.539063-40.535156-41.144531 22.855469-18.589844-18.589844-11.3125 11.308594 15.359375 15.363281-16.3125 9.070312-19.734375-19.734374-11.3125 11.3125 19.921875 19.917968-12.851563 25.6875-125.222656 125.234375c-12.367187-5.167969-25.480468-7.992187-39.160156-8.335937-.953125-.027344-1.894531-.160156-2.855469-.160156h-.007812-.007813c-.152344 0-.296875.023437-.449218.023437-29.160157.117187-56.558594 11.511719-77.191407 32.144531l-20.351562 20.351563c-.808594.808593-1.542969 1.75-2.335938 2.597656-1.601562 1.714844-3.214843 3.394531-4.734375 5.265625-1.53125 1.878906-2.9375 3.917969-4.371094 5.933594-.726562 1.027344-1.496093 1.9375-2.214843 3.011718-18.183594 5.644532-34.792969 15.636719-48.167969 29.015626-22.152344 22.140624-34.34375 51.589843-34.34375 82.910156v5.488281c0 64.65625 52.601562 117.257813 117.257812 117.257813h5.484376c31.320312 0 60.769531-12.195313 82.914062-34.34375 13.375-13.378907 23.367188-29.976563 29.015625-48.171876 1.070313-.71875 1.984375-1.484374 3.007813-2.214843 2.015624-1.429688 4.054687-2.839844 5.9375-4.367188 1.871093-1.519531 3.550781-3.136719 5.261718-4.734375.847656-.792968 1.785156-1.53125 2.601563-2.335937l.015625-.019531 20.320312-20.316407.015625-.019531c20.632813-20.628906 32.023438-48.03125 32.144531-77.191406 0-.152344.023438-.292969.023438-.445313v-.007812-.007813c0-14.617187-2.96875-28.691406-8.503906-42.011718l125.238281-125.238282 25.691406-12.847656 19.917969 19.917969 11.3125-11.308594-19.734375-19.738281 9.0625-16.3125 15.359375 15.359375 11.3125-11.308594-18.59375-18.59375zm-225.929688 222.082032-36.6875-36.6875 12.6875-12.691407 36.6875 36.691407zm-114.214844 111.648437c-7.664062-2.691406-14.863281-7.035156-20.984375-13.144531-5.457031-5.457032-9.542969-11.769532-12.273437-18.503906-5.582032-13.839844-5.398438-29.464844.472656-43.210938 2.71875-6.351562 6.632812-12.308594 11.808594-17.484375 2.09375-2.097656 4.390625-4.035156 6.878906-5.800781l78.121094 78.117187c-1.769532 2.480469-3.710938 4.785157-5.800782 6.882813-4.023437 4.023437-8.519531 7.304687-13.3125 9.839844-13.902343 7.359374-30.261718 8.421874-44.910156 3.304687zm17.933594-88.746094 24.28125-24.28125 36.6875 36.691407-24.28125 24.277343zm72.28125 1.097657-36.6875-36.6875 12.6875-12.691407 36.6875 36.691407zm11.3125-84.6875 12.6875-12.691407 36.6875 36.691407-12.6875 12.6875zm24-24 12.6875-12.691407 36.6875 36.691407-12.6875 12.6875zm24-24 12.6875-12.691407 36.6875 36.691407-12.6875 12.6875zm24-24 12.6875-12.691407 36.6875 36.691407-12.6875 12.6875zm24-24 12.6875-12.691407 36.6875 36.691407-12.6875 12.6875zm-115.128906 284.503906c-.832032.832031-1.816406 1.582031-2.695313 2.390625-1.625 1.496093-3.199219 3.007812-4.976562 4.414062-1.191407.945313-2.609375 1.832031-3.886719 2.753907-1.671875 1.191406-3.273438 2.441406-5.058594 3.550781l-2.613281 1.640625-.839844 2.976562c-4.722656 16.726563-13.632812 31.992188-25.769531 44.128906-19.128906 19.109376-44.558594 29.640626-71.625 29.640626h-5.4375c-55.847656 0-101.28125-45.433594-101.28125-101.28125v-5.441407c0-27.0625 10.527344-52.496093 29.65625-71.621093 12.136719-12.136719 27.398438-21.050782 44.128906-25.769532l2.976563-.839844 1.636719-2.617187c1.113281-1.785156 2.363281-3.382813 3.554687-5.054687.917969-1.28125 1.808594-2.6875 2.75-3.890626 1.410156-1.773437 2.921875-3.359374 4.417969-4.972656.808594-.882812 1.558594-1.867187 2.390625-2.699218l20.320312-20.316407c17.367188-17.371093 41.359375-27.355469 65.886719-27.472656.152344 0 .304688-.023437.464844-.023437.679687 0 1.335937.09375 2.015625.109374 9.527343.199219 18.792969 1.761719 27.671875 4.730469l-59.4375 59.4375-18.25-18.246093h-.007813l-.023437-.023438-5.3125 3.046875c-5.929688 3.398437-10.953125 7.191406-15.359375 11.609375-5.894531 5.917969-10.480469 12.644531-13.894531 19.789062-9.328126 19.480469-9.394532 42.273438-.210938 61.808594 3.433594 7.328125 8.089844 14.222656 14.113281 20.273438 6.832031 6.808594 14.703125 11.925781 23.113281 15.421875 8.878907 3.714843 18.34375 5.601562 27.824219 5.601562 11.414063 0 22.8125-2.703125 33.183594-8.082031 6.390625-3.300781 12.390625-7.605469 17.742187-12.941406 4.410157-4.402344 8.199219-9.425782 11.601563-15.351563l3.046875-5.3125-.023438-.023437v-.007813l-18.25-18.25 59.433594-59.429687c3.175782 9.542968 4.839844 19.46875 4.839844 29.671875 0 .148437-.023438.300781-.023438.460937-.121093 24.53125-10.105468 48.519532-27.472656 65.890625zm177.390625-270.242188-39.839844-39.839844 12.3125-24.632812 64.5625-35.863281 23.460937 23.464843-35.863281 64.558594zm0 0" fill="#1e1713"/><path d="m28.6875 369.929688 99.3125 99.308593 35.3125-35.308593-99.3125-99.3125zm99.3125 76.6875-76.6875-76.6875 12.6875-12.691407 76.6875 76.691407zm0 0" fill="#1e1713"/><path d="m402.335938 84.277344 40-40 11.3125 11.3125-39.996094 40zm0 0" fill="#1e1713"/></svg>