<svg id="Layer_35" enable-background="new 0 0 64 64" height="512" viewBox="0 0 64 64" width="512" xmlns="http://www.w3.org/2000/svg"><circle cx="32" cy="32" fill="#69d6f4" r="24"/><g fill="#ff826e"><path d="m7.19 46.4c.49.36.81.94.81 1.6 0 1.1-.9 2-2 2-.3 0-.59-.07-.85-.19v-.01c-.68-.31-1.15-1-1.15-1.8 0-1.1.9-2 2-2 .44 0 .86.14 1.19.4z"/><path d="m22.89 45.79c-.27.14-.57.21-.89.21-1.1 0-2-.9-2-2 0-.91.61-1.68 1.45-1.92.17-.05.36-.08.55-.08 1.1 0 2 .9 2 2 0 .78-.45 1.46-1.11 1.79z"/><circle cx="32" cy="32" r="2"/><path d="m41.11 18.21c.27-.14.57-.21.89-.21 1.1 0 2 .9 2 2 0 .91-.61 1.68-1.45 1.92-.17.05-.36.08-.55.08-1.1 0-2-.9-2-2 0-.78.45-1.46 1.11-1.79z"/><path d="m59.89 12.21c.66.33 1.11 1.01 1.11 1.79 0 1.1-.9 2-2 2-.37 0-.72-.1-1.02-.28-.59-.35-.98-.99-.98-1.72 0-1.1.9-2 2-2 .32 0 .62.07.89.21z"/></g><path d="m61.863 2.137c-3.751-3.745-13.921 2.554-19.972 6.908-3.035-1.314-6.379-2.045-9.891-2.045-13.785 0-25 11.215-25 25 0 3.515.733 6.86 2.047 9.898-.795 1.106-1.535 2.184-2.222 3.232-.263-.076-.537-.13-.825-.13-1.654 0-3 1.346-3 3 0 .813.328 1.55.855 2.091-3.104 5.841-3.688 9.803-1.719 11.771.768.768 1.838 1.123 3.155 1.123 3.938-.001 10.068-3.185 16.802-8.036 3.041 1.317 6.389 2.051 9.907 2.051 13.785 0 25-11.215 25-25 0-3.512-.731-6.855-2.044-9.89 1.279-1.779 2.432-3.508 3.449-5.17.192.039.391.06.595.06 1.654 0 3-1.346 3-3 0-.819-.331-1.561-.865-2.103 2.191-4.741 2.453-8.034.728-9.76zm-29.858 52.715c-.81-.491-2.643-1.741-4.592-3.976 2.274-1.839 4.567-3.815 6.826-5.875h6.15c-2.788 6.124-6.993 9.022-8.384 9.851zm-.01-45.704c1.271.77 5.062 3.412 7.84 8.785-.289.302-.508.665-.651 1.067h-15.574c2.79-6.126 6.996-9.025 8.385-9.852zm10.005 11.852c-.552 0-1-.448-1-1s.448-1 1-1 1 .448 1 1-.448 1-1 1zm-2.816 0c.392 1.1 1.402 1.898 2.615 1.98.702 2.492 1.091 5.181 1.166 8.02h-8.15c-.414-1.161-1.514-2-2.816-2s-2.402.839-2.816 2h-8.163c.101-3.933.785-7.243 1.779-10zm3.786 12.506c-1.487 1.608-3.035 3.22-4.639 4.825-1.639 1.639-3.26 3.195-4.857 4.67h-8.659c-.392-1.1-1.402-1.898-2.615-1.98-.702-2.492-1.092-5.18-1.167-8.02h8.15c.414 1.161 1.514 2 2.816 2s2.402-.839 2.816-2h8.164c-.003.167-.003.339-.009.505zm-20.97 9.494c.552 0 1 .448 1 1s-.448 1-1 1-1-.448-1-1 .448-1 1-1zm9-11c0-.552.448-1 1-1s1 .448 1 1-.448 1-1 1-1-.448-1-1zm-11.98-1h-9.995c.155-3.609 1.143-7.006 2.781-10h8.877c-.938 2.813-1.568 6.127-1.663 10zm.014 2c.076 3.022.491 5.889 1.24 8.554-.5.354-.88.859-1.09 1.446h-7.378c-1.638-2.994-2.626-6.391-2.781-10zm.15 12c.414 1.161 1.514 2 2.816 2 .129 0 .252-.022.377-.038.703 1.363 1.461 2.565 2.237 3.617-.927.727-1.836 1.419-2.724 2.074-3.566-1.753-6.615-4.402-8.851-7.653zm4.981 1.067c.289-.302.508-.665.651-1.067h6.452c-1.737 1.546-3.437 2.994-5.086 4.33-.699-.952-1.383-2.037-2.017-3.263zm12.23-3.067c1.133-1.07 2.252-2.158 3.35-3.256 1.006-1.006 1.992-2.016 2.954-3.026-.307 2.355-.834 4.441-1.498 6.282zm8.531-8.668c.407-.444.81-.888 1.207-1.332h8.842c-.155 3.609-1.143 7.006-2.781 10h-8.877c.828-2.486 1.417-5.361 1.609-8.668zm.04-3.332c-.076-3.021-.49-5.889-1.239-8.554.5-.354.88-.858 1.089-1.446h7.378c.159.291.31.586.457.885-2.164 2.94-4.658 6.008-7.411 9.115zm-.15-12c-.414-1.161-1.514-2-2.816-2-.129 0-.252.022-.377.038-1.901-3.689-4.235-6.195-6.079-7.764 6.383.991 11.903 4.617 15.417 9.726zm-16.395-9.72c-2.167 1.838-5.001 4.948-6.993 9.72h-8.389c3.508-5.1 9.015-8.721 15.382-9.72zm-22.421 37.72c.552 0 1 .448 1 1s-.448 1-1 1-1-.448-1-1 .448-1 1-1zm-2.449 13.448c-1.215-1.215-.424-4.737 2.104-9.483.115.013.227.035.345.035 1.654 0 3-1.346 3-3 0-.637-.203-1.225-.542-1.712.498-.762 1.029-1.542 1.588-2.339 2.308 4.223 5.798 7.711 10.023 10.015-8.414 5.921-14.695 8.307-16.518 6.484zm22.291-8.321c.916 1.06 1.81 1.915 2.615 2.599-1.547-.24-3.043-.637-4.472-1.17.615-.464 1.235-.941 1.857-1.429zm9.737 2.593c2.167-1.838 5.001-4.948 6.993-9.72h8.389c-3.508 5.1-9.015 8.721-15.382 9.72zm19.396-23.72h-7.08c2.055-2.374 3.953-4.719 5.668-6.998.817 2.195 1.306 4.547 1.412 6.998zm-11.029-20.956c9.306-6.539 14.977-8.021 16.503-6.493 1.03 1.031.609 3.746-1.115 7.483-.111-.013-.219-.034-.334-.034-1.654 0-3 1.346-3 3 0 .724.268 1.38.697 1.899-.822 1.344-1.737 2.734-2.738 4.161-2.305-4.222-5.792-7.71-10.013-10.016zm15.054 4.956c-.552 0-1-.448-1-1s.448-1 1-1 1 .448 1 1-.448 1-1 1z"/><path d="m24 25h2v2h-2z"/><path d="m28 25h2v2h-2z"/><path d="m32 25h2v2h-2z"/><path d="m15 35h2v2h-2z"/><path d="m11 35h2v2h-2z"/><path d="m25 39h2v2h-2z"/><path d="m29 39h2v2h-2z"/><path d="m33 39h2v2h-2z"/></svg>